<svg width="432" height="429" viewBox="0 0 432 429" fill="none" xmlns="http://www.w3.org/2000/svg">
<path d="M123 223C123 200.909 140.909 183 163 183H269C291.091 183 309 200.909 309 223V267C309 318.362 267.362 360 216 360V360C164.638 360 123 318.362 123 267V223Z" fill="#E84C3D"/>
<path d="M137 117C137 78.3401 168.34 47 207 47H226C264.66 47 296 78.3401 296 117V144C296 155.046 287.046 164 276 164H157C145.954 164 137 155.046 137 144V117Z" fill="#E84C3D"/>
<path d="M138.053 11L186.053 56.0333L153.053 75.0859L138.053 11Z" fill="#E84C3D"/>
<path d="M293.947 11L245.947 56.0333L278.947 75.0859L293.947 11Z" fill="#E84C3D"/>
<path d="M243.796 124.553L243.241 142.56L253.279 139.87L243.796 124.553Z" fill="#ECF0F1"/>
<path d="M165 130C165 130 172.5 145.5 219.5 145.5C266.5 145.5 273 130 273 130" stroke="#ECF0F1" stroke-width="4" stroke-linecap="round"/>
<path d="M298.875 209.743C298.875 209.743 325.436 212.825 358.688 155.23C391.94 97.6359 375.284 77.3989 375.284 77.3989" stroke="#E84C3D" stroke-width="14" stroke-linecap="round"/>
<path d="M271.298 229.435C271.298 229.435 281.91 253.979 348.414 253.979C414.919 253.979 424.116 229.435 424.116 229.435" stroke="#E84C3D" stroke-width="14" stroke-linecap="round"/>
<path d="M298.875 286.671C298.875 286.671 325.436 283.589 358.688 341.184C391.94 398.778 375.284 419.015 375.284 419.015" stroke="#E84C3D" stroke-width="14" stroke-linecap="round"/>
<circle cx="187.5" cy="89.5" r="16.5" fill="#ECF0F1"/>
<circle cx="244.5" cy="89.5" r="16.5" fill="#ECF0F1"/>
<path d="M133.241 209.743C133.241 209.743 106.68 212.825 73.4276 155.23C40.1755 97.6359 56.8324 77.3989 56.8324 77.3989" stroke="#E84C3D" stroke-width="14" stroke-linecap="round"/>
<path d="M160.818 229.435C160.818 229.435 150.206 253.979 83.7016 253.979C17.1974 253.979 8.00004 229.435 8.00004 229.435" stroke="#E84C3D" stroke-width="14" stroke-linecap="round"/>
<path d="M133.241 286.671C133.241 286.671 106.68 283.589 73.4276 341.184C40.1755 398.778 56.8324 419.015 56.8324 419.015" stroke="#E84C3D" stroke-width="14" stroke-linecap="round"/>
<rect x="165" y="242" width="102" height="10" rx="5" fill="#ECF0F1"/>
<rect width="102" height="10" rx="5" transform="matrix(1 0 0 -1 165 279)" fill="#ECF0F1"/>
<rect x="197.5" y="311.5" width="102" height="10" rx="5" transform="rotate(-90 197.5 311.5)" fill="#ECF0F1"/>
<rect width="102" height="10" rx="5" transform="matrix(-4.37114e-08 -1 -1 4.37114e-08 234.5 311.5)" fill="#ECF0F1"/>
<rect x="178" y="222" width="77" height="77" rx="24" fill="#34495E"/>
<rect x="202" y="246" width="29" height="29" rx="14.5" fill="#ECF0F1"/>
</svg>
